<?xml version="1.0" encoding="utf-8"?>
<!-- Generator: Adobe Illustrator 28.0.0, SVG Export Plug-In . SVG Version: 6.00 Build 0)  -->
<svg version="1.1" id="Camada_1" xmlns="http://www.w3.org/2000/svg" xmlns:xlink="http://www.w3.org/1999/xlink" x="0px" y="0px"
	 viewBox="0 0 80 38" style="enable-background:new 0 0 80 38;" xml:space="preserve">
<style type="text/css">
	.st0{fill:#594E9B;}
	.st1{fill:#6358A2;}
	.st2{fill:#6357A1;}
	.st3{fill:#FFFFFF;}
	.st4{fill:#8477B6;}
	.st5{fill:#9F8DC3;}
	.st6{fill:#8376B5;}
	.st7{fill:#AF9DCC;}
	.st8{fill:#B5A5D0;}
	.st9{fill:#695DA6;}
	.st10{fill:#A593C6;}
</style>
<g>
	<polygon class="st0" points="28.99,7.02 28.99,7.02 28.99,7.02 28.99,7.02 	"/>
	<path class="st0" d="M58.82,13.49c-0.38-1.52-0.96-2.95-1.75-4.31c-0.84-1.43-1.87-2.71-3.12-3.81c-1.36-1.2-2.92-2.06-4.65-2.6
		C49.15,2.72,49,2.65,48.85,2.57c-2.24-1.33-4.66-2.03-7.27-2.08c-0.51-0.01-1.02,0.02-1.54,0.05c-0.83,0.06-1.65,0.19-2.46,0.38
		c-1.55,0.35-3.03,0.9-4.46,1.61c-1.79,0.88-3.46,1.94-5.01,3.2C26.98,6.66,25.94,7.68,25,8.8c-1.06,1.27-1.94,2.65-2.63,4.15
		c-0.94,2.04-1.49,4.17-1.62,6.41c-0.06,1.14,0.01,2.28,0.21,3.41c0.24,1.38,0.68,2.7,1.29,3.96c1.22,2.53,2.96,4.66,5.15,6.42
		c0.57,0.46,1.17,0.88,1.74,1.34c2.37,1.93,5.1,2.89,8.14,3.01c0.56,0.02,1.13,0.01,1.69-0.02c0.71-0.05,1.41-0.13,2.11-0.26
		c1.98-0.37,3.87-1.02,5.68-1.89c1.46-0.7,2.85-1.53,4.16-2.49c1.39-1.01,2.65-2.15,3.77-3.45c1.42-1.66,2.54-3.5,3.32-5.55
		c0.81-2.11,1.24-4.3,1.24-6.57c0-0.51-0.02-1.02-0.07-1.54C59.13,14.98,59,14.23,58.82,13.49z M21.52,22.38
		c0.02,0.57,0.08,1.14,0.17,1.7c0,0.02,0.01,0.03,0.01,0.05c0.01,0.07,0,0.12-0.07,0.14c-0.07,0.02-0.11-0.03-0.13-0.09
		c-0.01-0.04-0.02-0.08-0.04-0.12c-0.19-0.68-0.33-1.37-0.42-2.07c-0.08-0.6-0.12-1.19-0.12-1.79c-0.01-1.62,0.24-3.21,0.71-4.77
		c0.79-2.6,2.12-4.89,3.93-6.92c1.05-1.17,2.22-2.21,3.48-3.15c1.3-0.97,2.66-1.82,4.11-2.53c1.67-0.81,3.4-1.42,5.23-1.76
		c0.6-0.11,1.21-0.18,1.82-0.23c0.48-0.03,0.95-0.04,1.43-0.03c1.24,0.02,2.46,0.21,3.65,0.55c0.63,0.18,1.24,0.4,1.84,0.66
		c0.04,0.02,0.09,0.04,0.13,0.06c0.05,0.03,0.09,0.06,0.07,0.12c-0.02,0.06-0.07,0.08-0.12,0.08c-0.11-0.01-0.22-0.02-0.33-0.04
		c-0.45-0.06-0.9-0.1-1.36-0.1c-0.47,0-0.93-0.07-1.39-0.09c-0.25-0.01-0.5-0.02-0.75-0.02c-0.72-0.01-1.43,0.01-2.15,0.08
		c-1.92,0.18-3.79,0.61-5.6,1.27c-0.09,0.03-0.2,0.1-0.28,0.08c-0.16-0.04-0.25,0.04-0.36,0.11C34.68,3.78,34.33,3.9,34,4.04
		c-0.87,0.39-1.71,0.81-2.54,1.29c-0.03,0.02-0.07,0.05-0.1,0.07c0.01,0.03,0.04,0.04,0.07,0.04c0.33-0.18,0.67-0.35,1.01-0.52
		c0.1-0.05,0.2-0.16,0.33-0.05c0.01,0.01,0.03-0.01,0.05-0.01c0.02-0.01,0.03-0.02,0.04-0.03c0.53-0.42,1.15-0.65,1.77-0.89
		c1.5-0.59,3.04-1.02,4.62-1.32c0.72-0.13,1.45-0.23,2.18-0.29c0.06-0.01,0.13-0.01,0.19-0.01c0.06,0,0.11,0.01,0.11,0.08
		c0.01,0.06-0.04,0.09-0.09,0.12c-0.02,0.01-0.04,0.01-0.07,0.02c-1.72,0.37-3.38,0.96-5,1.64c-2.2,0.92-4.3,2.01-6.28,3.33
		c-0.6,0.4-1.19,0.82-1.75,1.27c-0.04,0.03-0.07,0.06-0.11,0.08c-0.04,0.03-0.08,0.07-0.14,0.04c-0.07-0.03-0.06-0.09-0.05-0.15
		c0,0-0.02,0-0.02,0s-0.02,0-0.02,0l0,0c-0.37,0.39-0.74,0.8-1.08,1.21c-0.06,0.07-0.12,0.12-0.19,0.18
		c-1.33,1.25-2.5,2.63-3.43,4.21c-0.89,1.51-1.49,3.13-1.79,4.86C21.55,20.27,21.48,21.32,21.52,22.38z M27.68,32.6
		c-0.27-0.19-0.5-0.41-0.71-0.67c-1.77-2.16-2.94-4.6-3.53-7.32c-0.17-0.78-0.27-1.57-0.33-2.37c-0.04-0.62-0.04-1.25-0.02-1.87
		c0.05-1.08,0.2-2.15,0.46-3.21c0.13-0.55,0.29-1.09,0.47-1.63c0.02-0.05,0.03-0.1,0.04-0.15c0,0,0,0,0,0c0,0,0,0,0,0
		c-0.01-0.03-0.01-0.06-0.04-0.08c-0.16,0.36-0.27,0.74-0.38,1.12c-0.25,0.81-0.43,1.64-0.55,2.49c-0.08,0.54-0.13,1.08-0.15,1.62
		c-0.03,0.57-0.02,1.14,0.01,1.71c0.05,0.95,0.18,1.89,0.39,2.81c0.32,1.42,0.82,2.78,1.48,4.07c0.25,0.49,0.52,0.96,0.82,1.42
		c0.03,0.05,0.06,0.1,0.09,0.15c0.04,0.06,0.05,0.12-0.02,0.17c-0.06,0.05-0.11,0-0.15-0.04c-0.02-0.02-0.04-0.04-0.06-0.06
		c-1.67-1.71-2.85-3.7-3.41-6.04c-0.16-0.67-0.26-1.35-0.31-2.03c-0.03-0.43-0.04-0.85-0.03-1.27c0.02-1.3,0.23-2.57,0.61-3.81
		c0.55-1.81,1.46-3.43,2.62-4.92c0.01-0.02,0.03-0.04,0.04-0.05c0.04-0.04,0.08-0.08,0.13-0.06c0.07,0.02,0.08,0.08,0.08,0.14
		c0,0,0,0,0,0c0,0,0,0,0,0c0.02,0,0.03,0,0.05,0c0,0,0,0,0,0l0,0c0.13-0.21,0.26-0.41,0.38-0.63c0.33-0.61,0.8-1.1,1.3-1.57
		c1.63-1.53,3.44-2.8,5.38-3.9c2.4-1.37,4.91-2.45,7.54-3.29c0.99-0.32,2.01-0.54,3.04-0.68c0.83-0.11,1.67-0.15,2.51-0.14
		c0.72,0.01,1.42,0.16,2.11,0.35c0.99,0.28,1.95,0.67,2.85,1.17c0.23,0.13,0.42,0.29,0.62,0.46c1.63,1.41,2.93,3.09,3.92,5.01
		c0.74,1.44,1.26,2.97,1.6,4.55c0.19,0.89,0.33,1.79,0.39,2.69c0.03,0.45-0.01,0.91-0.05,1.36c-0.06,0.68-0.16,1.35-0.3,2.02
		c-0.28,1.36-0.7,2.68-1.25,3.96c-0.86,2.01-1.99,3.86-3.36,5.56c-0.7,0.86-1.45,1.66-2.27,2.4c-0.17,0.15-0.36,0.26-0.55,0.37
		c-2.05,1.28-4.26,2.18-6.62,2.72c-0.91,0.21-1.83,0.35-2.76,0.43c-0.91,0.08-1.82,0.1-2.72,0.05c-2.34-0.12-4.6-0.62-6.75-1.56
		C29.38,33.65,28.51,33.16,27.68,32.6z M56.84,20.73c-0.03,0.23-0.06,0.47-0.11,0.72c-0.18,1.05-0.45,2.08-0.82,3.08
		c-0.61,1.63-1.5,3.1-2.64,4.41c-0.34,0.39-0.7,0.77-1.08,1.12c-0.03,0.03-0.07,0.06-0.1,0.09c-0.05,0.04-0.11,0.08-0.17,0.02
		c-0.06-0.06-0.02-0.12,0.02-0.17c0.03-0.03,0.05-0.06,0.08-0.09c1.88-2.32,3.3-4.88,4.2-7.73c0.14-0.46,0.27-0.91,0.38-1.38
		c0.01-0.04,0.02-0.08,0.03-0.12c0.02-0.05,0.06-0.09,0.12-0.08C56.82,20.61,56.84,20.66,56.84,20.73z M39.22,36.75
		c-0.34,0.02-0.67,0.03-1.11,0.03c-2.17-0.01-4.34-0.49-6.42-1.39c-0.59-0.26-1.17-0.55-1.73-0.87c-0.05-0.03-0.09-0.05-0.13-0.09
		c-0.04-0.03-0.06-0.07-0.03-0.12c0.03-0.04,0.07-0.06,0.12-0.05c0.03,0.01,0.06,0.03,0.1,0.04c1.43,0.65,2.93,1.09,4.48,1.37
		c0.59,0.1,1.18,0.18,1.78,0.23c0.88,0.08,1.77,0.09,2.65,0.06c0.83-0.03,1.66-0.13,2.48-0.26c1.57-0.26,3.09-0.71,4.57-1.31
		c0.17-0.07,0.33-0.14,0.5-0.21c0.06-0.03,0.13-0.05,0.17,0.03c0.04,0.07-0.01,0.12-0.07,0.16c-0.29,0.18-0.58,0.34-0.88,0.5
		c-1.36,0.72-2.78,1.25-4.28,1.57C40.68,36.6,39.95,36.7,39.22,36.75z M58.39,21.83c-0.53,1.95-1.35,3.77-2.47,5.45
		c-0.88,1.32-1.92,2.51-3.09,3.58c-1.46,1.34-3.08,2.45-4.8,3.41c-0.73,0.41-1.48,0.78-2.26,1.11c-0.04,0.02-0.08,0.03-0.11,0.05
		c-0.05,0.02-0.09,0.01-0.12-0.03c-0.03-0.05-0.03-0.1,0.02-0.14c0.03-0.02,0.07-0.04,0.11-0.06c1.31-0.69,2.52-1.52,3.64-2.49
		c0.27-0.24,0.59-0.41,0.89-0.62c1.61-1.16,3.03-2.51,4.18-4.13c1.04-1.47,1.77-3.09,2.23-4.83c0.22-0.82,0.37-1.66,0.47-2.5
		c0.12-1,0.15-2.01,0.12-3.02c-0.01-0.42-0.04-0.85-0.09-1.27c-0.02-0.23-0.03-0.47-0.04-0.7c-0.13-2.16-0.61-4.24-1.51-6.21
		c-0.54-1.17-1.23-2.25-2.09-3.21c-0.66-0.73-1.39-1.38-2.21-1.92c-0.12-0.08-0.22-0.17-0.33-0.26C50.88,4,50.85,3.95,50.88,3.9
		c0.03-0.06,0.09-0.07,0.15-0.04c0.05,0.02,0.1,0.04,0.14,0.07c1.44,0.72,2.69,1.69,3.77,2.88c1.64,1.8,2.78,3.89,3.46,6.22
		c0.25,0.85,0.42,1.72,0.51,2.6c0.06,0.56,0.09,1.13,0.09,1.58C59,18.84,58.79,20.35,58.39,21.83z"/>
	<path class="st1" d="M24.03,15.3c0.03,0.02,0.03,0.05,0.04,0.08c0,0,0,0,0,0c0.01-0.06,0.02-0.12,0.04-0.18
		C24.09,15.24,24.06,15.27,24.03,15.3z"/>
	<path class="st1" d="M25.29,12.72C25.29,12.72,25.29,12.72,25.29,12.72c-0.02,0-0.03,0-0.05,0c0,0,0,0,0,0
		c-0.01,0.03-0.02,0.05-0.03,0.08C25.24,12.77,25.26,12.74,25.29,12.72z"/>
	<path class="st1" d="M25.08,13.13c0.07-0.14,0.16-0.27,0.22-0.41c-0.03,0.02-0.05,0.05-0.08,0.07c-0.06,0.16-0.15,0.3-0.23,0.45
		c-0.32,0.58-0.58,1.19-0.82,1.8c-0.02,0.05-0.03,0.11-0.06,0.16c-0.02,0.06-0.03,0.12-0.04,0.18c0.04-0.04,0.05-0.09,0.06-0.14
		C24.4,14.52,24.71,13.82,25.08,13.13z"/>
	<path class="st1" d="M24.11,15.2c0.05-0.2,0.15-0.39,0.22-0.58c0.23-0.57,0.5-1.12,0.79-1.66c0.03-0.06,0.06-0.11,0.1-0.16
		c0.01-0.03,0.02-0.05,0.03-0.08c-0.01,0.02-0.03,0.04-0.04,0.06c-0.29,0.51-0.56,1.04-0.8,1.58c-0.14,0.31-0.28,0.62-0.38,0.95
		C24.06,15.27,24.09,15.24,24.11,15.2z"/>
	<path class="st1" d="M24.33,14.62c-0.08,0.19-0.17,0.38-0.22,0.58c0.02-0.05,0.04-0.11,0.06-0.16c0.24-0.61,0.51-1.22,0.82-1.8
		c0.08-0.15,0.17-0.29,0.23-0.45c-0.04,0.05-0.07,0.11-0.1,0.16C24.83,13.5,24.56,14.05,24.33,14.62z"/>
	<path class="st2" d="M30.22,6.15c0.07-0.04,0.13-0.08,0.2-0.13c-0.07,0.04-0.14,0.09-0.21,0.13c0,0-0.01,0-0.01,0.01c0,0,0,0,0,0
		C30.21,6.16,30.22,6.16,30.22,6.15z"/>
	<path class="st2" d="M31.22,5.53c0.07-0.04,0.14-0.07,0.22-0.09c-0.03,0-0.06-0.01-0.07-0.04c-0.06,0.06-0.12,0.11-0.19,0.16
		C31.19,5.55,31.21,5.54,31.22,5.53z"/>
	<path class="st2" d="M30.79,5.79c-0.07,0.05-0.15,0.1-0.22,0.15c0.14-0.09,0.29-0.18,0.43-0.27C30.93,5.7,30.86,5.74,30.79,5.79z"
		/>
	<path class="st2" d="M30.2,6.16C30.2,6.16,30.21,6.16,30.2,6.16c0.08-0.05,0.15-0.09,0.22-0.14c0.05-0.03,0.1-0.06,0.15-0.1
		c0.07-0.05,0.15-0.1,0.22-0.15C30.86,5.74,30.93,5.7,31,5.66c0.06-0.03,0.11-0.07,0.17-0.1c0.07-0.05,0.13-0.1,0.19-0.16
		c-0.41,0.22-0.8,0.48-1.18,0.74C30.19,6.15,30.2,6.16,30.2,6.16z"/>
	<path class="st2" d="M31.17,5.56C31.12,5.6,31.06,5.63,31,5.66c-0.15,0.09-0.29,0.18-0.43,0.27c-0.05,0.03-0.1,0.06-0.15,0.1
		c-0.07,0.04-0.13,0.08-0.2,0.13c-0.01,0-0.01,0.01-0.02,0.01c0.01,0.01,0.01,0.01,0.02,0.02c0,0,0,0,0,0c0,0,0,0,0,0
		c0.22-0.14,0.45-0.27,0.67-0.41c0.18-0.11,0.37-0.22,0.55-0.33c-0.08,0.02-0.15,0.05-0.22,0.09C31.21,5.54,31.19,5.55,31.17,5.56z"
		/>
	<path class="st2" d="M31,5.66c0.06-0.03,0.12-0.07,0.17-0.1C31.12,5.6,31.06,5.63,31,5.66z"/>
	<path class="st2" d="M30.42,6.03c0.05-0.03,0.1-0.06,0.15-0.1C30.52,5.96,30.47,5.99,30.42,6.03z"/>
	<path class="st3" d="M43.89,24.75c0.26,0,0.52,0,0.79,0c0.2,0,0.18,0,0.18-0.18c0-0.54,0-1.07,0-1.61c0-0.17,0-0.17,0.18-0.17
		c0.68,0,1.35,0,2.03,0c0.04,0,0.08,0,0.12,0c0.06,0,0.09-0.02,0.09-0.08c0-0.26,0-0.52,0-0.79c0-0.07-0.03-0.09-0.1-0.09
		c-0.04,0-0.08,0-0.12,0c-0.65,0-1.29,0-1.94,0c-0.05,0-0.1,0-0.16,0c-0.06,0-0.1-0.04-0.1-0.1c0-0.31,0-0.62,0-0.93
		c0-0.07,0.04-0.11,0.11-0.1c0.04,0,0.08,0,0.12,0c0.75,0,1.5,0,2.25,0c0.03,0,0.07,0,0.1,0c0.15,0,0.15,0,0.15-0.14
		c0-0.04,0-0.08,0-0.12c0-0.19,0-0.37,0-0.56c0-0.08,0.03-0.13,0.12-0.14c0.06,0,0.11-0.02,0.17-0.03c0.24-0.03,0.47-0.06,0.71-0.09
		c0.33-0.04,0.67-0.07,1.02-0.11c-0.01,0.04-0.01,0.06-0.01,0.08c-0.02,0.04-0.04,0.07-0.06,0.11c-0.58,1.03-1.1,2.08-1.46,3.2
		c-0.13,0.42-0.24,0.84-0.26,1.28c-0.01,0.25,0,0.5,0.08,0.74c0.11,0.32,0.33,0.53,0.68,0.57c0.28,0.04,0.54-0.01,0.8-0.14
		c0.4-0.2,0.73-0.48,1.03-0.8c0.51-0.56,0.92-1.19,1.31-1.83c0.06-0.09,0.04-0.16-0.04-0.23c-0.1-0.08-0.21-0.06-0.3,0.06
		c-0.32,0.42-0.63,0.85-0.96,1.26c-0.23,0.28-0.45,0.56-0.72,0.8c-0.17,0.15-0.34,0.32-0.58,0.38c-0.18,0.05-0.32,0-0.41-0.17
		c-0.05-0.09-0.07-0.19-0.08-0.3c-0.02-0.42,0.08-0.81,0.22-1.19c0.22-0.59,0.48-1.16,0.75-1.73c0.32-0.68,0.67-1.36,1.01-2.03
		c0.06-0.12,0.13-0.19,0.28-0.18c0.11,0.01,0.22-0.01,0.33-0.01c0.77-0.05,1.54-0.1,2.3-0.02c0.24,0.02,0.49,0.04,0.69,0.21
		c0.04,0.03,0.06,0.01,0.09-0.02c0.11-0.12,0.09-0.28-0.04-0.38c-0.25-0.21-0.56-0.27-0.87-0.33c-0.17-0.03-0.35-0.03-0.52-0.06
		c-0.54-0.07-1.07-0.06-1.6,0c-0.05,0.01-0.1,0.01-0.16,0.01c-0.06,0-0.07-0.03-0.05-0.08c0.02-0.04,0.04-0.07,0.06-0.11
		c0.07-0.12,0.13-0.25,0.2-0.37c0.04-0.07,0.02-0.12-0.04-0.16C51.23,18.03,51.18,18,51.11,18c-0.09,0-0.19-0.01-0.28,0
		c-0.18,0.03-0.33,0.1-0.43,0.26c-0.1,0.17-0.21,0.33-0.32,0.5c-0.04,0.06-0.08,0.12-0.17,0.13c-0.23,0.03-0.46,0.06-0.69,0.09
		c-0.36,0.04-0.71,0.12-1.06,0.17c-0.15,0.02-0.3,0.05-0.44,0.12c-0.13,0.06-0.13,0.06-0.13-0.08c0-0.21,0-0.42,0-0.63
		c0-0.08-0.02-0.12-0.11-0.12c-0.04,0-0.08,0-0.12,0c-0.76,0-1.51,0-2.27,0c-0.05,0-0.09,0-0.14,0c-0.06,0-0.09-0.03-0.09-0.08
		c0-0.31,0-0.62,0-0.93c0-0.06,0.03-0.08,0.09-0.08c0.04,0,0.08,0,0.12,0c0.65,0,1.29,0,1.94,0c0.05,0,0.09,0,0.14,0
		c0.06,0,0.09-0.03,0.09-0.08c0-0.26,0-0.52,0-0.79c0-0.06-0.03-0.1-0.09-0.1c-0.03,0-0.07,0-0.1,0c-0.65,0-1.3,0-1.96,0
		c-0.04,0-0.08,0-0.12,0c-0.06,0-0.1-0.03-0.1-0.09c0-0.29,0-0.58,0-0.87c0-0.06,0.03-0.09,0.08-0.09c0.05,0,0.09,0,0.14,0
		c0.75,0,1.5,0,2.25,0c0.05,0,0.09,0,0.14,0c0.06,0,0.08-0.02,0.08-0.08c0-0.26,0-0.51,0-0.77c0-0.08-0.04-0.1-0.11-0.1
		c-0.03,0-0.07,0-0.1,0c-1.12,0-2.25,0-3.37,0c-0.03,0-0.07,0-0.1,0c-0.08,0-0.1,0.04-0.1,0.11c0,0.03,0,0.06,0,0.09
		c0,1.54,0,3.09,0,4.63c0,0.03,0,0.07,0,0.1c0,0.07,0.03,0.09,0.1,0.09c0.03,0,0.07,0,0.1,0c1.12,0,2.25,0,3.37,0
		c0.06,0,0.12-0.03,0.17,0.02c0.04,0.04-0.01,0.09-0.01,0.13c0,0.02,0.01,0.03,0.01,0.05c0.02,0.11,0.02,0.11-0.1,0.12
		c-0.03,0-0.07,0-0.1,0c-1.11,0-2.21,0-3.32,0c-0.25,0-0.22-0.01-0.22,0.23c0,1.49,0,2.97,0,4.46c0,0.07,0,0.14,0,0.21
		C43.76,24.73,43.8,24.76,43.89,24.75z"/>
	<path class="st3" d="M36.49,23.99c-0.21-0.29-0.4-0.6-0.62-0.89c-0.06-0.07-0.05-0.1,0.04-0.15c0.03-0.02,0.06-0.03,0.09-0.04
		c0.42-0.22,0.73-0.53,0.85-1.01c0.05-0.21,0.05-0.43,0.04-0.64c-0.03-0.61-0.33-1.05-0.88-1.31c-0.32-0.15-0.66-0.19-1-0.19
		c-0.72-0.01-1.43,0-2.15,0c-0.15,0-0.16,0-0.16,0.16c0,0.03,0,0.06,0,0.09c0,1,0,1.99,0,2.99c0,0.55,0,1.11,0,1.66
		c0,0.14,0,0.14,0.14,0.15c0.24,0,0.49,0,0.73,0c0.24,0,0.21,0.02,0.21-0.22c0-0.41,0-0.83,0-1.24c0-0.15,0.01-0.16,0.16-0.16
		c0.17,0,0.35,0.01,0.52,0c0.15-0.01,0.24,0.04,0.32,0.17c0.28,0.45,0.59,0.88,0.88,1.32c0.06,0.09,0.12,0.13,0.24,0.13
		c0.31-0.01,0.63,0,0.94,0c0.05,0,0.1,0.01,0.15-0.02C37,24.75,37,24.73,36.99,24.72C36.83,24.47,36.66,24.23,36.49,23.99z
		 M35.72,21.81c-0.12,0.26-0.34,0.36-0.6,0.38c-0.2,0.02-0.41,0-0.61,0c0,0,0,0,0,0.01c-0.19,0-0.38,0-0.58,0
		c-0.14,0-0.14-0.01-0.14-0.13c0-0.4,0-0.79,0-1.19c0-0.13,0.02-0.15,0.12-0.15c0.41,0.01,0.83-0.03,1.24,0.02
		c0.28,0.04,0.51,0.16,0.6,0.46C35.81,21.42,35.81,21.62,35.72,21.81z"/>
	<path class="st3" d="M26.99,14.57c0,0.76,0,1.53,0,2.29c0,0.77,0,1.54,0,2.31c0,0.04,0,0.08,0,0.12c0,0.07,0.03,0.1,0.09,0.1
		c0.03,0,0.06,0,0.09,0c0.57,0,1.14,0,1.71,0c0.4,0,0.79-0.05,1.16-0.2c0.71-0.29,1.21-0.77,1.46-1.5c0.14-0.43,0.17-0.86,0.09-1.31
		c-0.12-0.63-0.44-1.13-0.95-1.51c-0.43-0.32-0.92-0.47-1.46-0.51c-0.69-0.04-1.38-0.01-2.08-0.02c-0.08,0-0.12,0.03-0.11,0.11
		C26.99,14.49,26.99,14.53,26.99,14.57z M28.08,15.51c0-0.18,0-0.18,0.19-0.18c0.27,0,0.55-0.01,0.82,0.01
		c0.67,0.03,1.18,0.45,1.34,1.1c0.13,0.51,0.05,0.98-0.26,1.41c-0.17,0.23-0.4,0.37-0.66,0.47c-0.19,0.08-0.4,0.09-0.6,0.1
		c-0.23,0.01-0.45,0-0.68,0c-0.15,0-0.16-0.02-0.16-0.16c0-0.46,0-0.92,0-1.38C28.08,16.42,28.08,15.96,28.08,15.51z"/>
	<path class="st3" d="M33.2,19.38c0.1,0,0.14-0.03,0.18-0.12c0.11-0.3,0.24-0.59,0.36-0.89c0.04-0.09,0.09-0.13,0.19-0.13
		c0.62,0.01,1.25,0.01,1.87,0c0.11,0,0.15,0.04,0.19,0.13c0.12,0.3,0.24,0.59,0.36,0.89c0.03,0.09,0.08,0.13,0.18,0.12
		c0.22-0.01,0.44,0,0.66,0c0.08,0,0.16,0,0.24,0c0.07,0,0.1-0.03,0.07-0.1c-0.03-0.07-0.06-0.14-0.09-0.21
		c-0.42-0.99-0.84-1.98-1.26-2.97c-0.23-0.55-0.47-1.1-0.7-1.65c-0.04-0.1-0.09-0.14-0.21-0.14c-0.25,0.01-0.5,0.01-0.75,0
		c-0.1,0-0.15,0.03-0.18,0.12c-0.11,0.26-0.22,0.52-0.33,0.79c-0.44,1.04-0.89,2.09-1.33,3.13c-0.14,0.33-0.28,0.66-0.43,1.01
		c0.05,0.01,0.07,0.02,0.09,0.02C32.61,19.38,32.9,19.38,33.2,19.38z M34.24,17.14c0.19-0.46,0.38-0.93,0.57-1.39
		c0.01-0.03,0.01-0.07,0.07-0.08c0.03,0.06,0.06,0.13,0.09,0.2c0.17,0.43,0.35,0.85,0.52,1.28c0.05,0.13,0.05,0.15-0.1,0.15
		c-0.35,0-0.7,0-1.05,0C34.2,17.29,34.18,17.27,34.24,17.14z"/>
	<path class="st3" d="M38.82,24.79c0.07,0,0.08-0.04,0.11-0.1c0.12-0.29,0.24-0.58,0.36-0.87c0.08-0.2,0.07-0.16,0.24-0.16
		c0.6,0,1.2,0,1.8,0c0.13,0,0.2,0.04,0.24,0.16c0.1,0.28,0.22,0.55,0.33,0.83c0.06,0.15,0.06,0.15,0.21,0.15c0.17,0,0.34,0,0.51,0
		c0.15,0,0.3,0.01,0.45-0.01c0.02-0.06-0.01-0.11-0.03-0.15c-0.4-0.94-0.79-1.87-1.19-2.81c-0.28-0.65-0.56-1.3-0.83-1.96
		c-0.04-0.09-0.09-0.13-0.19-0.13c-0.25,0.01-0.5,0.01-0.75,0c-0.1,0-0.16,0.03-0.2,0.13c-0.15,0.36-0.3,0.72-0.46,1.08
		c-0.44,1.03-0.88,2.06-1.32,3.1c-0.1,0.24-0.21,0.49-0.32,0.76C38.14,24.79,38.48,24.79,38.82,24.79z M39.78,22.61
		c0.2-0.5,0.41-1,0.62-1.5c0-0.01,0.02-0.01,0.03-0.02c0.04,0.03,0.06,0.08,0.07,0.13c0.18,0.44,0.36,0.87,0.54,1.31
		c0.01,0.03,0.02,0.05,0.03,0.08c0.02,0.08,0.01,0.11-0.08,0.11c-0.38,0-0.76,0-1.13,0C39.77,22.71,39.75,22.68,39.78,22.61z"/>
	<path class="st3" d="M31.41,23.99c-0.18-0.18-0.36-0.36-0.53-0.54c-0.19-0.19-0.13-0.18-0.34-0.01c-0.35,0.29-0.75,0.46-1.21,0.44
		c-0.42-0.02-0.77-0.19-1.03-0.52c-0.36-0.45-0.47-0.97-0.32-1.53c0.15-0.57,0.49-0.97,1.08-1.12c0.36-0.09,0.72-0.04,1.05,0.12
		c0.21,0.1,0.39,0.25,0.58,0.4c0.21-0.24,0.41-0.47,0.61-0.7c0.08-0.09,0.08-0.1-0.01-0.18c-0.43-0.41-0.96-0.62-1.55-0.67
		c-0.3-0.02-0.6-0.02-0.9,0.04c-0.71,0.14-1.26,0.51-1.64,1.11c-0.39,0.6-0.51,1.27-0.37,1.97c0.17,0.85,0.64,1.47,1.42,1.83
		c0.69,0.32,1.4,0.32,2.11,0.09C30.77,24.59,31.11,24.32,31.41,23.99z"/>
	<path class="st3" d="M37.99,14.51c0.11,0.28,0.22,0.55,0.33,0.83c0.53,1.31,1.05,2.62,1.58,3.94c0.06,0.14,0.06,0.14,0.22,0.14
		c0.2,0,0.41,0,0.61,0c0.25,0,0.2,0,0.28-0.18c0.37-0.92,0.74-1.83,1.1-2.75c0.27-0.67,0.54-1.34,0.8-2.01
		c0.05-0.13,0.05-0.14-0.09-0.14c-0.29,0-0.57,0-0.86,0c-0.17,0-0.18,0.01-0.24,0.16c-0.39,1.06-0.78,2.11-1.17,3.17
		c-0.02,0.06-0.02,0.17-0.09,0.17c-0.1,0.01-0.07-0.12-0.1-0.18c-0.33-0.87-0.65-1.75-0.97-2.63c-0.07-0.18-0.13-0.36-0.2-0.54
		c-0.06-0.16-0.07-0.16-0.24-0.16c-0.14,0-0.28,0-0.42,0c-0.17,0-0.34,0-0.51,0c-0.08,0-0.09,0.03-0.07,0.1
		C37.96,14.46,37.98,14.49,37.99,14.51z"/>
	<path class="st0" d="M51.06,16.48c-0.06,0.14-0.12,0.27-0.15,0.43c0.12,0.01,0.23-0.03,0.32-0.08c0.18-0.08,0.31-0.04,0.45,0.09
		c0.08,0.08,0.16,0.16,0.28,0.21c0.01-0.16,0.02-0.32,0.02-0.47c0-0.09,0.02-0.15,0.11-0.2c0.08-0.04,0.16-0.1,0.23-0.15
		c0.05-0.03,0.1-0.05,0.13-0.12c-0.13-0.05-0.24-0.09-0.36-0.13c-0.12-0.04-0.2-0.09-0.22-0.23c-0.02-0.13-0.05-0.27-0.12-0.4
		c-0.14,0.09-0.2,0.24-0.3,0.35c-0.08,0.09-0.16,0.12-0.27,0.09c-0.12-0.03-0.25-0.03-0.39-0.02c0.07,0.15,0.17,0.27,0.25,0.39
		C51.08,16.33,51.1,16.39,51.06,16.48z"/>
	<path class="st4" d="M29.98,6.31c-0.15,0.1-0.3,0.2-0.44,0.31c0,0,0,0,0,0c0,0,0,0,0.01,0c0.14-0.11,0.29-0.21,0.44-0.31
		c0,0,0,0,0.01,0c0,0,0,0,0,0C29.99,6.31,29.98,6.31,29.98,6.31z"/>
	<path class="st4" d="M29.98,6.31c0,0,0.01-0.01,0.01-0.01c-0.01-0.01-0.01-0.01-0.02-0.02l0,0c-0.16,0.09-0.3,0.21-0.45,0.32
		c0.01,0.01,0.01,0.01,0.02,0.02C29.68,6.51,29.83,6.41,29.98,6.31z"/>
	<path class="st4" d="M29.99,6.3C29.99,6.31,29.99,6.31,29.99,6.3c-0.16,0.1-0.31,0.2-0.45,0.31c0,0,0,0-0.01,0
		c0.01,0,0.01,0.01,0.02,0.01h0c0,0,0,0,0,0c0.15-0.1,0.31-0.2,0.46-0.31v0l0,0C30,6.31,30,6.31,29.99,6.3z"/>
	<path class="st5" d="M29.29,6.8c0.01,0,0.01-0.01,0.02-0.01c0.07-0.06,0.14-0.11,0.21-0.16c0,0,0,0,0,0
		C29.44,6.69,29.36,6.74,29.29,6.8z"/>
	<polygon class="st5" points="29.29,6.81 29.29,6.8 29.29,6.81 	"/>
	<path class="st5" d="M29.52,6.63c-0.07,0.05-0.15,0.1-0.21,0.16c-0.01,0-0.01,0.01-0.02,0.01c0,0,0,0,0,0c0.01,0,0.01,0,0.02,0
		c0,0,0,0,0,0c0,0,0,0,0,0c0.08-0.05,0.17-0.11,0.24-0.17C29.53,6.64,29.52,6.64,29.52,6.63z"/>
	<path class="st5" d="M29.29,6.8c0.07-0.07,0.15-0.12,0.23-0.17c0-0.01,0-0.02,0-0.03c-0.09,0.06-0.19,0.12-0.26,0.2
		C29.27,6.8,29.28,6.8,29.29,6.8C29.29,6.81,29.29,6.8,29.29,6.8z"/>
	<path class="st5" d="M29.54,6.62c-0.01,0-0.01,0.01-0.02,0.01c0,0,0,0,0,0C29.53,6.63,29.53,6.62,29.54,6.62
		C29.54,6.62,29.54,6.62,29.54,6.62C29.54,6.62,29.54,6.62,29.54,6.62z"/>
	<path class="st5" d="M29.54,6.62c-0.01,0-0.01,0.01-0.02,0.01c0,0.01,0.01,0.01,0.03,0h0C29.55,6.63,29.54,6.62,29.54,6.62z"/>
	<path class="st5" d="M29.52,6.63c0.01,0,0.01-0.01,0.02-0.01c0,0,0,0,0,0c-0.01-0.01-0.01-0.01-0.02-0.02
		C29.52,6.61,29.52,6.62,29.52,6.63z"/>
	<path class="st6" d="M30.05,6.26C30.05,6.26,30.05,6.26,30.05,6.26C30.06,6.26,30.06,6.26,30.05,6.26c0.01,0,0.01,0,0.01,0
		c0.04-0.02,0.08-0.05,0.12-0.08c0,0,0,0,0,0C30.14,6.21,30.1,6.24,30.05,6.26z"/>
	<path class="st6" d="M30.05,6.26c0.05-0.02,0.09-0.05,0.13-0.08c0-0.01-0.01-0.02,0-0.03c-0.06,0.02-0.1,0.06-0.14,0.1
		C30.04,6.25,30.05,6.26,30.05,6.26C30.05,6.26,30.05,6.26,30.05,6.26z"/>
	<path class="st6" d="M30.19,6.18c-0.04,0.03-0.08,0.06-0.12,0.08c0,0-0.01,0-0.01,0.01c0.01,0.01,0.01,0.01,0.02,0.02l0,0
		c0.06-0.02,0.11-0.05,0.15-0.1C30.2,6.19,30.19,6.19,30.19,6.18z"/>
	<path class="st6" d="M30.19,6.18c0.01,0,0.01-0.01,0.02-0.01c0,0,0,0,0,0C30.2,6.17,30.19,6.17,30.19,6.18
		C30.19,6.18,30.19,6.18,30.19,6.18z"/>
	<path class="st6" d="M30.19,6.18c0.01,0,0.01-0.01,0.02-0.01c-0.01-0.01-0.01-0.01-0.02-0.02C30.18,6.16,30.18,6.17,30.19,6.18z"/>
	<path class="st6" d="M30.2,6.17c-0.01,0-0.01,0.01-0.02,0.01c0.01,0.01,0.02,0.01,0.04,0c0,0,0,0,0,0
		C30.22,6.18,30.21,6.17,30.2,6.17z"/>
	<path class="st7" d="M29.13,6.91C29.13,6.91,29.13,6.91,29.13,6.91C29.13,6.91,29.14,6.91,29.13,6.91
		c0.02-0.01,0.02-0.02,0.03-0.02C29.15,6.9,29.14,6.9,29.13,6.91C29.13,6.91,29.13,6.91,29.13,6.91z"/>
	<path class="st7" d="M29.17,6.88c0.03-0.02,0.07-0.04,0.1-0.07c0,0,0,0,0,0C29.24,6.83,29.2,6.86,29.17,6.88z"/>
	<path class="st7" d="M29.27,6.81c-0.03,0.02-0.07,0.04-0.1,0.07c0,0-0.01,0.01-0.01,0.01c-0.01,0.01-0.02,0.01-0.02,0.02
		c0,0-0.01,0-0.01,0.01c0,0,0,0,0.01,0.01c0.07-0.02,0.12-0.07,0.17-0.11C29.3,6.82,29.28,6.82,29.27,6.81z"/>
	<path class="st7" d="M29.13,6.91C29.13,6.91,29.13,6.91,29.13,6.91c0.01-0.01,0.02-0.02,0.03-0.02c0,0,0.01-0.01,0.01-0.01
		c0.03-0.03,0.06-0.05,0.1-0.07c0,0-0.01-0.01-0.01-0.01C29.2,6.82,29.16,6.86,29.13,6.91C29.12,6.9,29.12,6.9,29.13,6.91
		L29.13,6.91C29.13,6.91,29.13,6.91,29.13,6.91z"/>
	<path class="st7" d="M29.17,6.88c0,0-0.01,0.01-0.01,0.01C29.17,6.89,29.17,6.89,29.17,6.88z"/>
	<polygon class="st7" points="29.27,6.81 29.27,6.81 29.27,6.81 	"/>
	<path class="st7" d="M29.27,6.81C29.28,6.81,29.28,6.81,29.27,6.81c0.01-0.01,0.01-0.01,0.01-0.01c0,0,0,0,0,0
		C29.28,6.81,29.28,6.81,29.27,6.81z"/>
	<path class="st7" d="M29.29,6.81C29.29,6.81,29.28,6.81,29.29,6.81c-0.01,0.01-0.01,0.01-0.01,0.01c0,0,0,0,0,0
		c0.01,0.01,0.02,0,0.04-0.01c0,0,0,0,0,0C29.3,6.81,29.29,6.81,29.29,6.81z"/>
	<path class="st7" d="M29.27,6.81c0,0,0.01-0.01,0.01-0.01c-0.01,0-0.02,0-0.03,0C29.26,6.81,29.27,6.81,29.27,6.81
		C29.27,6.81,29.27,6.81,29.27,6.81z"/>
	<path class="st8" d="M29.13,6.91C29.13,6.91,29.13,6.91,29.13,6.91c-0.05,0.03-0.09,0.07-0.14,0.1l0,0c0,0,0,0,0,0
		C29.05,6.99,29.08,6.94,29.13,6.91z"/>
	<path class="st8" d="M29,7.01C29,7.02,28.99,7.02,29,7.01L29,7.01c0.07,0,0.1-0.05,0.14-0.09c0,0,0-0.01-0.01-0.01
		C29.08,6.94,29.05,6.99,29,7.01z"/>
	<path class="st8" d="M29.12,6.9c-0.06,0.02-0.11,0.05-0.13,0.11l0,0C29.04,6.98,29.08,6.94,29.12,6.9
		C29.13,6.91,29.13,6.91,29.12,6.9z"/>
	<polygon class="st8" points="29.13,6.91 29.13,6.91 29.13,6.91 29.13,6.91 	"/>
	<polygon class="st8" points="29.13,6.91 29.14,6.92 29.13,6.91 	"/>
	<polygon class="st8" points="29.13,6.91 29.12,6.9 29.12,6.9 29.13,6.91 	"/>
	<path class="st9" d="M30,6.3C30,6.3,30,6.3,30,6.3c0.02-0.01,0.04-0.02,0.06-0.03c0,0,0,0,0,0C30.03,6.28,30.01,6.29,30,6.3z"/>
	<path class="st9" d="M30.05,6.26c-0.01,0-0.01-0.01-0.01-0.02c-0.02,0.01-0.04,0.03-0.06,0.04l0,0c0.01,0,0.02,0.01,0.02,0.01
		C30.01,6.29,30.03,6.28,30.05,6.26z"/>
	<path class="st9" d="M30,6.3c0.01,0,0.01,0.01,0.01,0.02c0.02-0.01,0.04-0.03,0.06-0.04l0,0c-0.01,0-0.02-0.01-0.02-0.01
		C30.03,6.28,30.02,6.29,30,6.3z"/>
	<polygon class="st9" points="29.99,6.3 29.99,6.3 30,6.3 30,6.3 	"/>
	<path class="st9" d="M30,6.3c-0.01,0-0.02-0.01-0.02-0.01C29.98,6.29,29.98,6.3,30,6.3C29.99,6.3,29.99,6.3,30,6.3z"/>
	<path class="st9" d="M30,6.3C30,6.3,30,6.3,30,6.3c0,0.01,0.01,0.01,0.01,0.02l0,0C30.01,6.31,30,6.31,30,6.3z"/>
	<polygon class="st9" points="30.05,6.26 30.05,6.27 30.06,6.26 30.05,6.26 	"/>
	<path class="st9" d="M30.05,6.27c0.01,0,0.02,0.01,0.02,0.01C30.07,6.27,30.06,6.27,30.05,6.27C30.06,6.26,30.05,6.27,30.05,6.27z"
		/>
	<path class="st9" d="M30.05,6.26C30.05,6.26,30.05,6.26,30.05,6.26c0-0.01-0.01-0.01-0.01-0.02C30.04,6.25,30.04,6.26,30.05,6.26z"
		/>
	<path class="st10" d="M28.99,7.02c-0.01,0.01-0.02,0.01-0.02,0.01c0,0,0,0,0,0C28.98,7.03,28.98,7.02,28.99,7.02
		C28.99,7.02,28.99,7.02,28.99,7.02C28.99,7.02,28.99,7.02,28.99,7.02z"/>
	<path class="st10" d="M28.97,7.04c0,0.01-0.01,0.01-0.01,0.01c0.02-0.01,0.03-0.02,0.04-0.04c0,0,0,0,0,0
		c-0.01,0.01-0.02,0.01-0.03,0.02C28.97,7.04,28.97,7.04,28.97,7.04z"/>
	<path class="st10" d="M28.97,7.03c0.01,0,0.02-0.01,0.02-0.01c0,0,0,0,0,0c0,0,0,0,0,0c-0.01,0-0.02,0-0.03,0c0,0,0,0,0,0
		c0,0,0,0,0,0C28.96,7.02,28.97,7.03,28.97,7.03z"/>
	<polygon class="st10" points="28.96,7.04 28.97,7.03 28.97,7.03 28.96,7.04 	"/>
	<path class="st10" d="M28.97,7.04c0,0,0-0.01,0-0.01C28.96,7.04,28.96,7.04,28.97,7.04c-0.01,0-0.01,0.01-0.01,0.01
		C28.96,7.06,28.96,7.05,28.97,7.04z"/>
	<path class="st10" d="M28.97,7.03c0,0,0-0.01-0.01-0.01c0,0,0,0,0,0C28.96,7.02,28.96,7.03,28.97,7.03
		C28.96,7.03,28.96,7.03,28.97,7.03z"/>
</g>
</svg>
