<?xml version="1.0" encoding="utf-8"?>
<!-- Generator: Adobe Illustrator 28.0.0, SVG Export Plug-In . SVG Version: 6.00 Build 0)  -->
<svg version="1.1" id="Camada_1" xmlns="http://www.w3.org/2000/svg" xmlns:xlink="http://www.w3.org/1999/xlink" x="0px" y="0px"
	 viewBox="0 0 108.8 108.8" style="enable-background:new 0 0 108.8 108.8;" xml:space="preserve">
<style type="text/css">
	.st0{fill:#594E9B;}
	.st1{fill:#6358A2;}
	.st2{fill:#6357A1;}
	.st3{fill:#FFFFFF;}
	.st4{fill:#8477B6;}
	.st5{fill:#9F8DC3;}
	.st6{fill:#8376B5;}
	.st7{fill:#AF9DCC;}
	.st8{fill:#B5A5D0;}
	.st9{fill:#695DA6;}
	.st10{fill:#A593C6;}
</style>
<g>
	<polygon class="st0" points="24.2,21.5 24.2,21.5 24.2,21.5 	"/>
	<path class="st0" d="M106.2,39.3c-1-4.2-2.6-8.1-4.8-11.8c-2.3-3.9-5.1-7.4-8.6-10.5c-3.7-3.3-8-5.7-12.8-7.1
		c-0.4-0.1-0.8-0.3-1.2-0.5c-6.2-3.7-12.8-5.6-20-5.7c-1.4,0-2.8,0.1-4.2,0.1c-2.3,0.2-4.5,0.5-6.8,1c-4.3,1-8.3,2.5-12.3,4.4
		c-4.9,2.4-9.5,5.3-13.8,8.8c-3.1,2.6-6,5.4-8.5,8.4c-2.9,3.5-5.3,7.3-7.2,11.4c-2.6,5.6-4.1,11.5-4.5,17.6c-0.2,3.1,0,6.3,0.6,9.4
		c0.7,3.8,1.9,7.4,3.5,10.9c3.4,7,8.1,12.8,14.2,17.6c1.6,1.3,3.2,2.4,4.8,3.7c6.5,5.3,14,7.9,22.4,8.3c1.5,0.1,3.1,0,4.6-0.1
		c2-0.1,3.9-0.4,5.8-0.7c5.4-1,10.6-2.8,15.6-5.2c4-1.9,7.8-4.2,11.4-6.8c3.8-2.8,7.3-5.9,10.4-9.5c3.9-4.6,7-9.6,9.1-15.3
		c2.2-5.8,3.4-11.8,3.4-18.1c0-1.4-0.1-2.8-0.2-4.2C107,43.4,106.7,41.3,106.2,39.3z M3.6,63.7c0.1,1.6,0.2,3.1,0.5,4.7
		c0,0.1,0,0.1,0,0.1c0,0.2,0,0.3-0.2,0.4c-0.2,0.1-0.3-0.1-0.4-0.2c0-0.1-0.1-0.2-0.1-0.3c-0.5-1.9-0.9-3.8-1.2-5.7
		C2.1,61,2,59.4,2,57.7c0-4.5,0.7-8.8,2-13.1c2.2-7.1,5.8-13.4,10.8-19c2.9-3.2,6.1-6.1,9.6-8.7c3.6-2.7,7.3-5,11.3-7
		c4.6-2.2,9.3-3.9,14.4-4.8c1.6-0.3,3.3-0.5,5-0.6c1.3-0.1,2.6-0.1,3.9-0.1c3.4,0.1,6.8,0.6,10,1.5C70.7,6.4,72.4,7,74,7.7
		c0.1,0.1,0.2,0.1,0.4,0.2c0.1,0.1,0.2,0.2,0.2,0.3s-0.2,0.2-0.3,0.2c-0.3,0-0.6-0.1-0.9-0.1c-1.2-0.2-2.5-0.3-3.7-0.3
		c-1.3,0-2.6-0.2-3.8-0.2c-0.7,0-1.4-0.1-2.1-0.1c-2,0-3.9,0-5.9,0.2c-5.3,0.5-10.4,1.7-15.4,3.5c-0.2,0.1-0.5,0.3-0.8,0.2
		c-0.4-0.1-0.7,0.1-1,0.3c-0.8,0.6-1.8,0.9-2.7,1.3c-2.4,1.1-4.7,2.2-7,3.5c-0.1,0.1-0.2,0.1-0.3,0.2c0,0.1,0.1,0.1,0.2,0.1
		c0.9-0.5,1.8-1,2.8-1.4c0.3-0.1,0.5-0.4,0.9-0.1c0,0,0.1,0,0.1,0c0.1,0,0.1-0.1,0.1-0.1c1.5-1.2,3.2-1.8,4.9-2.4
		c4.1-1.6,8.4-2.8,12.7-3.6c2-0.4,4-0.6,6-0.8c0.2,0,0.4,0,0.5,0c0.2,0,0.3,0,0.3,0.2c0,0.2-0.1,0.2-0.2,0.3c-0.1,0-0.1,0-0.2,0.1
		c-4.7,1-9.3,2.6-13.7,4.5c-6,2.5-11.8,5.5-17.3,9.2c-1.6,1.1-3.3,2.3-4.8,3.5c-0.1,0.1-0.2,0.2-0.3,0.2c-0.1,0.1-0.2,0.2-0.4,0.1
		c-0.2-0.1-0.2-0.2-0.1-0.4H22H22l0,0c-1,1.1-2,2.2-3,3.3c-0.2,0.2-0.3,0.3-0.5,0.5c-3.7,3.4-6.9,7.2-9.4,11.6
		C6.6,45.8,5,50.2,4.2,55C3.7,57.9,3.5,60.8,3.6,63.7z M20.6,91.8c-0.7-0.5-1.4-1.1-2-1.8c-4.9-5.9-8.1-12.6-9.7-20.1
		c-0.5-2.1-0.7-4.3-0.9-6.5c-0.1-1.7-0.1-3.4-0.1-5.1c0.1-3,0.5-5.9,1.3-8.8c0.4-1.5,0.8-3,1.3-4.5c0.1-0.1,0.1-0.3,0.1-0.4l0,0l0,0
		c0-0.1,0-0.2-0.1-0.2c-0.4,1-0.7,2-1,3.1c-0.7,2.2-1.2,4.5-1.5,6.8c-0.2,1.5-0.4,3-0.4,4.5c-0.1,1.6-0.1,3.1,0,4.7
		c0.1,2.6,0.5,5.2,1.1,7.7c0.9,3.9,2.3,7.6,4.1,11.2c0.7,1.3,1.4,2.6,2.3,3.9c0.1,0.1,0.2,0.3,0.2,0.4c0.1,0.2,0.1,0.3-0.1,0.5
		c-0.2,0.1-0.3,0-0.4-0.1c-0.1-0.1-0.1-0.1-0.2-0.2C10,82,6.7,76.6,5.2,70.1c-0.4-1.8-0.7-3.7-0.9-5.6c-0.1-1.2-0.1-2.3-0.1-3.5
		c0.1-3.6,0.6-7.1,1.7-10.5c1.5-5,4-9.4,7.2-13.5c0-0.1,0.1-0.1,0.1-0.1c0.1-0.1,0.2-0.2,0.4-0.2c0.2,0.1,0.2,0.2,0.2,0.4l0,0l0,0
		c0.1,0,0.1,0,0.1,0l0,0l0,0c0.4-0.6,0.7-1.1,1-1.7c0.9-1.7,2.2-3,3.6-4.3c4.5-4.2,9.5-7.7,14.8-10.7c6.6-3.8,13.5-6.7,20.7-9
		c2.7-0.9,5.5-1.5,8.4-1.9c2.3-0.3,4.6-0.4,6.9-0.4c2,0,3.9,0.4,5.8,1c2.7,0.8,5.4,1.8,7.8,3.2c0.6,0.4,1.2,0.8,1.7,1.3
		c4.5,3.9,8.1,8.5,10.8,13.8c2,4,3.5,8.2,4.4,12.5c0.5,2.4,0.9,4.9,1.1,7.4c0.1,1.2,0,2.5-0.1,3.7c-0.2,1.9-0.4,3.7-0.8,5.6
		c-0.8,3.7-1.9,7.4-3.4,10.9c-2.4,5.5-5.5,10.6-9.2,15.3c-1.9,2.4-4,4.6-6.2,6.6c-0.5,0.4-1,0.7-1.5,1c-5.6,3.5-11.7,6-18.2,7.5
		c-2.5,0.6-5,1-7.6,1.2c-2.5,0.2-5,0.3-7.5,0.1c-6.4-0.3-12.6-1.7-18.6-4.3C25.2,94.7,22.8,93.3,20.6,91.8z M100.7,59.2
		c-0.1,0.6-0.2,1.3-0.3,2c-0.5,2.9-1.2,5.7-2.3,8.5c-1.7,4.5-4.1,8.5-7.3,12.1c-0.9,1.1-1.9,2.1-3,3.1c-0.1,0.1-0.2,0.2-0.3,0.2
		c-0.1,0.1-0.3,0.2-0.5,0.1c-0.2-0.2-0.1-0.3,0.1-0.5c0.1-0.1,0.1-0.2,0.2-0.2C92.6,78,96.5,71,99,63.2c0.4-1.3,0.7-2.5,1-3.8
		c0-0.1,0.1-0.2,0.1-0.3c0.1-0.1,0.2-0.2,0.3-0.2C100.7,58.8,100.7,59,100.7,59.2z M52.3,103.2c-0.9,0.1-1.8,0.1-3.1,0.1
		c-6,0-11.9-1.3-17.6-3.8c-1.6-0.7-3.2-1.5-4.8-2.4c-0.1-0.1-0.2-0.1-0.4-0.2c-0.1-0.1-0.2-0.2-0.1-0.3c0.1-0.1,0.2-0.2,0.3-0.1
		c0.1,0,0.2,0.1,0.3,0.1c3.9,1.8,8.1,3,12.3,3.8c1.6,0.3,3.2,0.5,4.9,0.6c2.4,0.2,4.9,0.2,7.3,0.2c2.3-0.1,4.6-0.4,6.8-0.7
		c4.3-0.7,8.5-2,12.6-3.6c0.5-0.2,0.9-0.4,1.4-0.6c0.2-0.1,0.4-0.1,0.5,0.1c0.1,0.2,0,0.3-0.2,0.4c-0.8,0.5-1.6,0.9-2.4,1.4
		c-3.7,2-7.6,3.4-11.8,4.3C56.3,102.8,54.3,103.1,52.3,103.2z M105,62.2c-1.5,5.4-3.7,10.4-6.8,15c-2.4,3.6-5.3,6.9-8.5,9.8
		c-4,3.7-8.5,6.7-13.2,9.4c-2,1.1-4.1,2.1-6.2,3.1c-0.1,0.1-0.2,0.1-0.3,0.1c-0.1,0.1-0.2,0-0.3-0.1c-0.1-0.1-0.1-0.3,0.1-0.4
		c0.1-0.1,0.2-0.1,0.3-0.2c3.6-1.9,6.9-4.2,10-6.8c0.7-0.7,1.6-1.1,2.4-1.7c4.4-3.2,8.3-6.9,11.5-11.4c2.9-4,4.9-8.5,6.1-13.3
		c0.6-2.3,1-4.6,1.3-6.9c0.3-2.7,0.4-5.5,0.3-8.3c0-1.2-0.1-2.3-0.2-3.5c-0.1-0.6-0.1-1.3-0.1-1.9c-0.4-5.9-1.7-11.7-4.2-17.1
		c-1.5-3.2-3.4-6.2-5.7-8.8c-1.8-2-3.8-3.8-6.1-5.3c-0.3-0.2-0.6-0.5-0.9-0.7c-0.1-0.1-0.2-0.2-0.1-0.4c0.1-0.2,0.2-0.2,0.4-0.1
		c0.1,0.1,0.3,0.1,0.4,0.2c4,2,7.4,4.6,10.4,7.9c4.5,4.9,7.6,10.7,9.5,17.1c0.7,2.3,1.2,4.7,1.4,7.1c0.2,1.5,0.2,3.1,0.2,4.3
		C106.7,54,106.1,58.1,105,62.2z"/>
	<path class="st1" d="M10.5,44.2c0.1,0.1,0.1,0.1,0.1,0.2l0,0c0-0.2,0.1-0.3,0.1-0.5C10.7,44.1,10.6,44.2,10.5,44.2z"/>
	<path class="st1" d="M14,37.2L14,37.2c-0.1,0-0.1,0-0.1,0l0,0c0,0.1-0.1,0.1-0.1,0.2C13.9,37.3,13.9,37.2,14,37.2z"/>
	<path class="st1" d="M13.4,38.3c0.2-0.4,0.4-0.7,0.6-1.1c-0.1,0.1-0.1,0.1-0.2,0.2c-0.2,0.4-0.4,0.8-0.6,1.2
		c-0.9,1.6-1.6,3.3-2.3,4.9c-0.1,0.1-0.1,0.3-0.2,0.4c-0.1,0.2-0.1,0.3-0.1,0.5c0.1-0.1,0.1-0.2,0.2-0.4
		C11.5,42.1,12.4,40.2,13.4,38.3z"/>
	<path class="st1" d="M10.8,44c0.1-0.5,0.4-1.1,0.6-1.6c0.6-1.6,1.4-3.1,2.2-4.6c0.1-0.2,0.2-0.3,0.3-0.4c0-0.1,0.1-0.1,0.1-0.2
		c0,0.1-0.1,0.1-0.1,0.2c-0.8,1.4-1.5,2.9-2.2,4.3c-0.4,0.9-0.8,1.7-1,2.6C10.6,44.2,10.7,44.1,10.8,44z"/>
	<path class="st1" d="M11.4,42.4c-0.2,0.5-0.5,1-0.6,1.6c0.1-0.1,0.1-0.3,0.2-0.4c0.7-1.7,1.4-3.4,2.3-4.9c0.2-0.4,0.5-0.8,0.6-1.2
		c-0.1,0.1-0.2,0.3-0.3,0.4C12.7,39.3,12,40.8,11.4,42.4z"/>
	<path class="st2" d="M27.5,19.1c0.2-0.1,0.4-0.2,0.5-0.4C27.9,18.8,27.7,19,27.5,19.1C27.5,19.1,27.5,19.1,27.5,19.1L27.5,19.1
		C27.5,19.1,27.5,19.1,27.5,19.1z"/>
	<path class="st2" d="M30.3,17.4c0.2-0.1,0.4-0.2,0.6-0.2c-0.1,0-0.2,0-0.2-0.1c-0.2,0.2-0.3,0.3-0.5,0.4
		C30.2,17.4,30.3,17.4,30.3,17.4z"/>
	<path class="st2" d="M29.1,18.1c-0.2,0.1-0.4,0.3-0.6,0.4c0.4-0.2,0.8-0.5,1.2-0.7C29.5,17.9,29.3,18,29.1,18.1z"/>
	<path class="st2" d="M27.5,19.1C27.5,19.1,27.5,19.1,27.5,19.1c0.2-0.1,0.4-0.2,0.6-0.4c0.1-0.1,0.3-0.2,0.4-0.3
		c0.2-0.1,0.4-0.3,0.6-0.4c0.2-0.1,0.4-0.2,0.6-0.3c0.2-0.1,0.3-0.2,0.5-0.3c0.2-0.1,0.4-0.3,0.5-0.4C29.6,17.6,28.5,18.3,27.5,19.1
		C27.5,19.1,27.5,19.1,27.5,19.1z"/>
	<path class="st2" d="M30.2,17.5c-0.1,0.1-0.3,0.2-0.5,0.3c-0.4,0.2-0.8,0.5-1.2,0.7c-0.1,0.1-0.3,0.2-0.4,0.3
		c-0.2,0.1-0.4,0.2-0.5,0.4c0,0,0,0-0.1,0c0,0,0,0,0.1,0.1l0,0l0,0c0.6-0.4,1.2-0.7,1.8-1.1c0.5-0.3,1-0.6,1.5-0.9
		c-0.2,0.1-0.4,0.1-0.6,0.2C30.3,17.4,30.2,17.4,30.2,17.5z"/>
	<path class="st2" d="M29.7,17.7c0.2-0.1,0.3-0.2,0.5-0.3C30,17.6,29.9,17.7,29.7,17.7z"/>
	<path class="st2" d="M28.1,18.8c0.1-0.1,0.3-0.2,0.4-0.3C28.4,18.6,28.2,18.7,28.1,18.8z"/>
	<path class="st3" d="M65.1,70.2c0.7,0,1.4,0,2.2,0c0.5,0,0.5,0,0.5-0.5c0-1.5,0-2.9,0-4.4c0-0.5,0-0.5,0.5-0.5c1.9,0,3.7,0,5.6,0
		c0.1,0,0.2,0,0.3,0c0.2,0,0.2-0.1,0.2-0.2c0-0.7,0-1.4,0-2.2c0-0.2-0.1-0.2-0.3-0.2c-0.1,0-0.2,0-0.3,0c-1.8,0-3.5,0-5.3,0
		c-0.1,0-0.3,0-0.4,0s-0.3-0.1-0.3-0.3c0-0.9,0-1.7,0-2.6c0-0.2,0.1-0.3,0.3-0.3c0.1,0,0.2,0,0.3,0c2.1,0,4.1,0,6.2,0
		c0.1,0,0.2,0,0.3,0c0.4,0,0.4,0,0.4-0.4c0-0.1,0-0.2,0-0.3c0-0.5,0-1,0-1.5c0-0.2,0.1-0.4,0.3-0.4c0.2,0,0.3-0.1,0.5-0.1
		c0.7-0.1,1.3-0.2,2-0.2c0.9-0.1,1.8-0.2,2.8-0.3c0,0.1,0,0.2,0,0.2c-0.1,0.1-0.1,0.2-0.2,0.3c-1.6,2.8-3,5.7-4,8.8
		c-0.4,1.2-0.7,2.3-0.7,3.5c0,0.7,0,1.4,0.2,2c0.3,0.9,0.9,1.5,1.9,1.6c0.8,0.1,1.5,0,2.2-0.4c1.1-0.5,2-1.3,2.8-2.2
		c1.4-1.5,2.5-3.3,3.6-5c0.2-0.2,0.1-0.4-0.1-0.6c-0.3-0.2-0.6-0.2-0.8,0.2c-0.9,1.2-1.7,2.3-2.6,3.5c-0.6,0.8-1.2,1.5-2,2.2
		c-0.5,0.4-0.9,0.9-1.6,1c-0.5,0.1-0.9,0-1.1-0.5c-0.1-0.2-0.2-0.5-0.2-0.8c-0.1-1.2,0.2-2.2,0.6-3.3c0.6-1.6,1.3-3.2,2.1-4.8
		c0.9-1.9,1.8-3.7,2.8-5.6c0.2-0.3,0.4-0.5,0.8-0.5c0.3,0,0.6,0,0.9,0c2.1-0.1,4.2-0.3,6.3-0.1c0.7,0.1,1.3,0.1,1.9,0.6
		c0.1,0.1,0.2,0,0.2-0.1c0.3-0.3,0.2-0.8-0.1-1c-0.7-0.6-1.5-0.7-2.4-0.9c-0.5-0.1-1-0.1-1.4-0.2c-1.5-0.2-2.9-0.2-4.4,0
		c-0.1,0-0.3,0-0.4,0c-0.2,0-0.2-0.1-0.1-0.2c0.1-0.1,0.1-0.2,0.2-0.3c0.2-0.3,0.4-0.7,0.5-1c0.1-0.2,0.1-0.3-0.1-0.4
		c-0.1-0.1-0.3-0.2-0.5-0.2c-0.2,0-0.5,0-0.8,0c-0.5,0.1-0.9,0.3-1.2,0.7c-0.3,0.5-0.6,0.9-0.9,1.4c-0.1,0.2-0.2,0.3-0.5,0.4
		c-0.6,0.1-1.3,0.2-1.9,0.2c-1,0.1-2,0.3-2.9,0.5c-0.4,0.1-0.8,0.1-1.2,0.3c-0.4,0.2-0.4,0.2-0.4-0.2c0-0.6,0-1.2,0-1.7
		c0-0.2-0.1-0.3-0.3-0.3c-0.1,0-0.2,0-0.3,0c-2.1,0-4.2,0-6.2,0c-0.1,0-0.2,0-0.4,0c-0.2,0-0.2-0.1-0.2-0.2c0-0.9,0-1.7,0-2.6
		c0-0.2,0.1-0.2,0.2-0.2c0.1,0,0.2,0,0.3,0c1.8,0,3.5,0,5.3,0c0.1,0,0.2,0,0.4,0c0.2,0,0.2-0.1,0.2-0.2c0-0.7,0-1.4,0-2.2
		c0-0.2-0.1-0.3-0.2-0.3c-0.1,0-0.2,0-0.3,0c-1.8,0-3.6,0-5.4,0c-0.1,0-0.2,0-0.3,0c-0.2,0-0.3-0.1-0.3-0.2c0-0.8,0-1.6,0-2.4
		c0-0.2,0.1-0.2,0.2-0.2c0.1,0,0.2,0,0.4,0c2.1,0,4.1,0,6.2,0c0.1,0,0.2,0,0.4,0c0.2,0,0.2-0.1,0.2-0.2c0-0.7,0-1.4,0-2.1
		c0-0.2-0.1-0.3-0.3-0.3c-0.1,0-0.2,0-0.3,0c-3.1,0-6.2,0-9.3,0c-0.1,0-0.2,0-0.3,0c-0.2,0-0.3,0.1-0.3,0.3c0,0.1,0,0.2,0,0.2
		c0,4.2,0,8.5,0,12.7c0,0.1,0,0.2,0,0.3c0,0.2,0.1,0.2,0.3,0.2c0.1,0,0.2,0,0.3,0c3.1,0,6.2,0,9.3,0c0.2,0,0.3-0.1,0.5,0.1
		c0.1,0.1,0,0.2,0,0.4c0,0.1,0,0.1,0,0.1c0.1,0.3,0.1,0.3-0.3,0.3c-0.1,0-0.2,0-0.3,0c-3.1,0-6.1,0-9.1,0c-0.7,0-0.6,0-0.6,0.6
		c0,4.1,0,8.2,0,12.3c0,0.2,0,0.4,0,0.6C64.8,70.2,64.9,70.2,65.1,70.2z"/>
	<path class="st3" d="M44.8,68.1c-0.6-0.8-1.1-1.6-1.7-2.4c-0.2-0.2-0.1-0.3,0.1-0.4c0.1-0.1,0.2-0.1,0.2-0.1c1.2-0.6,2-1.5,2.3-2.8
		c0.1-0.6,0.1-1.2,0.1-1.8c-0.1-1.7-0.9-2.9-2.4-3.6c-0.9-0.4-1.8-0.5-2.7-0.5c-2,0-3.9,0-5.9,0c-0.4,0-0.4,0-0.4,0.4
		c0,0.1,0,0.2,0,0.2c0,2.7,0,5.5,0,8.2c0,1.5,0,3.1,0,4.6c0,0.4,0,0.4,0.4,0.4c0.7,0,1.3,0,2,0c0.7,0,0.6,0.1,0.6-0.6
		c0-1.1,0-2.3,0-3.4c0-0.4,0-0.4,0.4-0.4c0.5,0,1,0,1.4,0c0.4,0,0.7,0.1,0.9,0.5c0.8,1.2,1.6,2.4,2.4,3.6c0.2,0.2,0.3,0.4,0.7,0.4
		c0.9,0,1.7,0,2.6,0c0.1,0,0.3,0,0.4-0.1c0-0.1,0-0.2,0-0.2C45.7,69.4,45.2,68.8,44.8,68.1z M42.7,62.1c-0.3,0.7-0.9,1-1.6,1
		c-0.5,0.1-1.1,0-1.7,0c0,0,0,0,0,0c-0.5,0-1,0-1.6,0c-0.4,0-0.4,0-0.4-0.4c0-1.1,0-2.2,0-3.3c0-0.4,0.1-0.4,0.3-0.4
		c1.1,0,2.3-0.1,3.4,0.1c0.8,0.1,1.4,0.4,1.6,1.3C42.9,61.1,42.9,61.6,42.7,62.1z"/>
	<path class="st3" d="M18.7,42.2c0,2.1,0,4.2,0,6.3c0,2.1,0,4.2,0,6.3c0,0.1,0,0.2,0,0.3c0,0.2,0.1,0.3,0.2,0.3c0.1,0,0.2,0,0.2,0
		c1.6,0,3.1,0,4.7,0c1.1,0,2.2-0.1,3.2-0.5c2-0.8,3.3-2.1,4-4.1c0.4-1.2,0.5-2.4,0.2-3.6c-0.3-1.7-1.2-3.1-2.6-4.2
		c-1.2-0.9-2.5-1.3-4-1.4c-1.9-0.1-3.8,0-5.7-0.1c-0.2,0-0.3,0.1-0.3,0.3C18.7,42,18.7,42.1,18.7,42.2z M21.7,44.8
		c0-0.5,0-0.5,0.5-0.5c0.7,0,1.5,0,2.3,0c1.8,0.1,3.2,1.2,3.7,3c0.4,1.4,0.1,2.7-0.7,3.9c-0.5,0.6-1.1,1-1.8,1.3
		c-0.5,0.2-1.1,0.2-1.6,0.3c-0.6,0-1.2,0-1.9,0c-0.4,0-0.4-0.1-0.4-0.4c0-1.3,0-2.5,0-3.8C21.7,47.3,21.7,46.1,21.7,44.8z"/>
	<path class="st3" d="M35.7,55.5c0.3,0,0.4-0.1,0.5-0.3c0.3-0.8,0.7-1.6,1-2.4c0.1-0.2,0.2-0.4,0.5-0.4c1.7,0,3.4,0,5.1,0
		c0.3,0,0.4,0.1,0.5,0.4c0.3,0.8,0.7,1.6,1,2.4c0.1,0.2,0.2,0.4,0.5,0.3c0.6,0,1.2,0,1.8,0c0.2,0,0.4,0,0.7,0c0.2,0,0.3-0.1,0.2-0.3
		c-0.1-0.2-0.2-0.4-0.2-0.6c-1.2-2.7-2.3-5.4-3.5-8.2c-0.6-1.5-1.3-3-1.9-4.5c-0.1-0.3-0.2-0.4-0.6-0.4c-0.7,0-1.4,0-2.1,0
		c-0.3,0-0.4,0.1-0.5,0.3c-0.3,0.7-0.6,1.4-0.9,2.2c-1.2,2.9-2.4,5.7-3.7,8.6c-0.4,0.9-0.8,1.8-1.2,2.8c0.1,0,0.2,0.1,0.2,0.1
		C34.1,55.5,34.9,55.5,35.7,55.5z M38.6,49.3c0.5-1.3,1-2.6,1.6-3.8c0-0.1,0-0.2,0.2-0.2c0.1,0.2,0.2,0.4,0.2,0.5
		c0.5,1.2,1,2.3,1.4,3.5c0.1,0.4,0.1,0.4-0.3,0.4c-1,0-1.9,0-2.9,0C38.5,49.7,38.4,49.7,38.6,49.3z"/>
	<path class="st3" d="M51.2,70.3c0.2,0,0.2-0.1,0.3-0.3c0.3-0.8,0.7-1.6,1-2.4c0.2-0.5,0.2-0.4,0.7-0.4c1.6,0,3.3,0,4.9,0
		c0.4,0,0.5,0.1,0.7,0.4c0.3,0.8,0.6,1.5,0.9,2.3c0.2,0.4,0.2,0.4,0.6,0.4c0.5,0,0.9,0,1.4,0c0.4,0,0.8,0,1.2,0
		c0.1-0.2,0-0.3-0.1-0.4c-1.1-2.6-2.2-5.1-3.3-7.7c-0.8-1.8-1.5-3.6-2.3-5.4c-0.1-0.2-0.2-0.4-0.5-0.4c-0.7,0-1.4,0-2.1,0
		c-0.3,0-0.4,0.1-0.5,0.4c-0.4,1-0.8,2-1.3,3c-1.2,2.8-2.4,5.7-3.6,8.5c-0.3,0.7-0.6,1.3-0.9,2.1C49.3,70.3,50.3,70.3,51.2,70.3z
		 M53.8,64.3c0.5-1.4,1.1-2.7,1.7-4.1c0,0,0.1,0,0.1-0.1c0.1,0.1,0.2,0.2,0.2,0.4c0.5,1.2,1,2.4,1.5,3.6c0,0.1,0.1,0.1,0.1,0.2
		c0.1,0.2,0,0.3-0.2,0.3c-1,0-2.1,0-3.1,0C53.8,64.6,53.7,64.5,53.8,64.3z"/>
	<path class="st3" d="M30.8,68.1c-0.5-0.5-1-1-1.5-1.5c-0.5-0.5-0.4-0.5-0.9,0c-1,0.8-2.1,1.3-3.3,1.2c-1.2-0.1-2.1-0.5-2.8-1.4
		c-1-1.2-1.3-2.7-0.9-4.2c0.4-1.6,1.3-2.7,3-3.1c1-0.2,2-0.1,2.9,0.3c0.6,0.3,1.1,0.7,1.6,1.1c0.6-0.7,1.1-1.3,1.7-1.9
		c0.2-0.2,0.2-0.3,0-0.5c-1.2-1.1-2.6-1.7-4.3-1.8c-0.8-0.1-1.6-0.1-2.5,0.1c-2,0.4-3.5,1.4-4.5,3.1c-1.1,1.6-1.4,3.5-1,5.4
		c0.5,2.3,1.8,4,3.9,5c1.9,0.9,3.8,0.9,5.8,0.2C29.1,69.8,30,69,30.8,68.1z"/>
	<path class="st3" d="M48.9,42.1c0.3,0.8,0.6,1.5,0.9,2.3c1.5,3.6,2.9,7.2,4.3,10.8c0.2,0.4,0.2,0.4,0.6,0.4c0.5,0,1.1,0,1.7,0
		c0.7,0,0.5,0,0.8-0.5c1-2.5,2-5,3-7.6c0.7-1.8,1.5-3.7,2.2-5.5c0.1-0.4,0.1-0.4-0.2-0.4c-0.8,0-1.6,0-2.4,0c-0.5,0-0.5,0-0.7,0.4
		c-1.1,2.9-2.1,5.8-3.2,8.7c-0.1,0.2-0.1,0.5-0.2,0.5c-0.3,0-0.2-0.3-0.3-0.5c-0.9-2.4-1.8-4.8-2.7-7.2c-0.2-0.5-0.4-1-0.5-1.5
		c-0.2-0.4-0.2-0.4-0.7-0.4c-0.4,0-0.8,0-1.2,0c-0.5,0-0.9,0-1.4,0c-0.2,0-0.2,0.1-0.2,0.3C48.8,41.9,48.9,42,48.9,42.1z"/>
	<path class="st0" d="M84.8,47.5c-0.2,0.4-0.3,0.7-0.4,1.2c0.3,0,0.6-0.1,0.9-0.2c0.5-0.2,0.9-0.1,1.2,0.2c0.2,0.2,0.4,0.4,0.8,0.6
		c0-0.4,0.1-0.9,0.1-1.3c0-0.2,0.1-0.4,0.3-0.5c0.2-0.1,0.4-0.3,0.6-0.4c0.1-0.1,0.3-0.1,0.4-0.3c-0.4-0.1-0.7-0.2-1-0.4
		c-0.3-0.1-0.5-0.2-0.6-0.6c-0.1-0.4-0.1-0.7-0.3-1.1c-0.4,0.2-0.5,0.7-0.8,1c-0.2,0.2-0.4,0.3-0.7,0.2c-0.3-0.1-0.7-0.1-1.1-0.1
		c0.2,0.4,0.5,0.7,0.7,1.1C84.9,47.1,84.9,47.2,84.8,47.5z"/>
	<path class="st4" d="M26.9,19.5c-0.4,0.3-0.8,0.5-1.2,0.9l0,0c0,0,0,0,0,0C26.1,20.1,26.5,19.8,26.9,19.5
		C26.9,19.5,26.9,19.5,26.9,19.5L26.9,19.5C26.9,19.5,26.9,19.5,26.9,19.5z"/>
	<path class="st4" d="M26.9,19.5L26.9,19.5C26.9,19.5,26.9,19.5,26.9,19.5L26.9,19.5c-0.5,0.2-0.9,0.5-1.3,0.8c0,0,0,0,0.1,0.1
		C26.1,20.1,26.5,19.8,26.9,19.5z"/>
	<path class="st4" d="M26.9,19.5C26.9,19.5,26.9,19.5,26.9,19.5c-0.4,0.3-0.9,0.5-1.2,0.9c0,0,0,0,0,0c0,0,0,0,0.1,0l0,0l0,0
		C26.1,20.1,26.6,19.8,26.9,19.5L26.9,19.5L26.9,19.5C26.9,19.5,26.9,19.5,26.9,19.5z"/>
	<path class="st5" d="M25,20.9C25,20.9,25,20.9,25,20.9c0.2-0.2,0.4-0.3,0.6-0.5l0,0C25.4,20.6,25.2,20.7,25,20.9z"/>
	<path class="st5" d="M25,20.9L25,20.9L25,20.9z"/>
	<path class="st5" d="M25.6,20.4c-0.2,0.1-0.4,0.3-0.6,0.4c0,0,0,0-0.1,0l0,0c0,0,0,0,0.1,0l0,0l0,0C25.3,20.7,25.5,20.6,25.6,20.4
		C25.6,20.4,25.6,20.4,25.6,20.4z"/>
	<path class="st5" d="M25,20.9c0.2-0.2,0.4-0.3,0.6-0.5c0,0,0-0.1,0-0.1C25.4,20.5,25.1,20.7,25,20.9C24.9,20.9,25,20.9,25,20.9
		C25,20.9,25,20.9,25,20.9z"/>
	<path class="st5" d="M25.7,20.4C25.6,20.4,25.6,20.4,25.7,20.4L25.7,20.4C25.6,20.4,25.6,20.4,25.7,20.4L25.7,20.4L25.7,20.4z"/>
	<path class="st5" d="M25.7,20.4C25.6,20.4,25.6,20.4,25.7,20.4C25.6,20.4,25.6,20.4,25.7,20.4L25.7,20.4
		C25.7,20.4,25.7,20.4,25.7,20.4z"/>
	<path class="st5" d="M25.6,20.4C25.6,20.4,25.6,20.4,25.6,20.4L25.6,20.4C25.6,20.4,25.6,20.4,25.6,20.4
		C25.6,20.4,25.6,20.4,25.6,20.4z"/>
	<path class="st6" d="M27.1,19.4L27.1,19.4C27.1,19.4,27.1,19.4,27.1,19.4C27.1,19.4,27.1,19.4,27.1,19.4c0.1-0.1,0.2-0.1,0.4-0.2
		l0,0C27.3,19.3,27.2,19.3,27.1,19.4z"/>
	<path class="st6" d="M27.1,19.4c0.1-0.1,0.2-0.1,0.4-0.2c0,0,0-0.1,0-0.1C27.3,19.1,27.2,19.3,27.1,19.4
		C27.1,19.4,27.1,19.4,27.1,19.4L27.1,19.4z"/>
	<path class="st6" d="M27.5,19.2c-0.1,0.1-0.2,0.2-0.3,0.2c0,0,0,0,0,0c0,0,0,0,0.1,0.1l0,0c0.2-0.1,0.3-0.1,0.4-0.3
		C27.5,19.2,27.5,19.2,27.5,19.2z"/>
	<path class="st6" d="M27.5,19.2C27.5,19.2,27.5,19.1,27.5,19.2L27.5,19.2C27.5,19.1,27.5,19.1,27.5,19.2L27.5,19.2z"/>
	<path class="st6" d="M27.5,19.2C27.5,19.2,27.5,19.1,27.5,19.2C27.5,19.1,27.5,19.1,27.5,19.2C27.4,19.1,27.4,19.1,27.5,19.2z"/>
	<path class="st6" d="M27.5,19.1C27.5,19.1,27.5,19.2,27.5,19.1C27.5,19.2,27.5,19.2,27.5,19.1L27.5,19.1
		C27.5,19.2,27.5,19.1,27.5,19.1z"/>
	<path class="st7" d="M24.5,21.2L24.5,21.2C24.5,21.2,24.6,21.2,24.5,21.2C24.6,21.2,24.6,21.1,24.5,21.2
		C24.6,21.2,24.6,21.2,24.5,21.2L24.5,21.2z"/>
	<path class="st7" d="M24.7,21.1c0.1-0.1,0.2-0.1,0.3-0.2l0,0C24.9,21,24.7,21,24.7,21.1z"/>
	<path class="st7" d="M24.9,20.9c-0.1,0.1-0.2,0.1-0.3,0.2l0,0c0,0-0.1,0-0.1,0.1c0,0,0,0,0,0c0,0,0,0,0,0c0.2-0.1,0.3-0.2,0.5-0.3
		C25,20.9,25,20.9,24.9,20.9z"/>
	<path class="st7" d="M24.5,21.2L24.5,21.2C24.6,21.2,24.6,21.1,24.5,21.2l0.1-0.1c0.1-0.1,0.2-0.1,0.3-0.2l0,0
		C24.7,20.9,24.6,21,24.5,21.2C24.5,21.2,24.5,21.2,24.5,21.2L24.5,21.2L24.5,21.2z"/>
	<path class="st7" d="M24.7,21.1L24.7,21.1C24.7,21.1,24.7,21.1,24.7,21.1z"/>
	<path class="st7" d="M24.9,20.9L24.9,20.9L24.9,20.9z"/>
	<path class="st7" d="M24.9,20.9C25,20.9,25,20.9,24.9,20.9C25,20.9,25,20.9,24.9,20.9L24.9,20.9C25,20.9,25,20.9,24.9,20.9z"/>
	<path class="st7" d="M25,20.9C25,20.9,25,20.9,25,20.9C25,20.9,25,20.9,25,20.9L25,20.9C25,21,25,20.9,25,20.9L25,20.9
		C25,20.9,25,20.9,25,20.9z"/>
	<path class="st7" d="M24.9,20.9L24.9,20.9C24.9,20.9,24.9,20.9,24.9,20.9C24.9,20.9,24.9,20.9,24.9,20.9L24.9,20.9z"/>
	<path class="st8" d="M24.5,21.2L24.5,21.2c-0.1,0.1-0.2,0.2-0.4,0.3l0,0l0,0C24.3,21.4,24.4,21.3,24.5,21.2z"/>
	<path class="st8" d="M24.2,21.5C24.2,21.5,24.2,21.5,24.2,21.5L24.2,21.5c0.2,0,0.3-0.1,0.4-0.2c0,0,0,0,0,0
		C24.4,21.3,24.3,21.4,24.2,21.5z"/>
	<path class="st8" d="M24.5,21.2c-0.2,0.1-0.3,0.1-0.4,0.3l0,0C24.3,21.4,24.4,21.3,24.5,21.2C24.5,21.2,24.5,21.2,24.5,21.2z"/>
	<polygon class="st8" points="24.5,21.2 24.5,21.2 24.5,21.2 	"/>
	<path class="st8" d="M24.5,21.2L24.5,21.2L24.5,21.2z"/>
	<polygon class="st8" points="24.5,21.2 24.5,21.2 24.5,21.2 	"/>
	<path class="st9" d="M26.9,19.5L26.9,19.5c0.1,0,0.1-0.1,0.2-0.1l0,0C27,19.4,27,19.5,26.9,19.5z"/>
	<path class="st9" d="M27.1,19.4C27.1,19.4,27.1,19.4,27.1,19.4c-0.1,0-0.1,0-0.2,0.1l0,0c0,0,0.1,0,0.1,0
		C27,19.5,27,19.4,27.1,19.4z"/>
	<path class="st9" d="M26.9,19.5C27,19.5,27,19.5,26.9,19.5c0.1,0,0.1,0,0.2-0.1l0,0c0,0-0.1,0-0.1,0C27,19.4,27,19.5,26.9,19.5z"/>
	<polygon class="st9" points="26.9,19.5 26.9,19.5 26.9,19.5 26.9,19.5 	"/>
	<path class="st9" d="M26.9,19.5C26.9,19.5,26.9,19.5,26.9,19.5C26.9,19.5,26.9,19.5,26.9,19.5C26.9,19.5,26.9,19.5,26.9,19.5z"/>
	<path class="st9" d="M26.9,19.5L26.9,19.5C26.9,19.5,27,19.5,26.9,19.5L26.9,19.5C27,19.5,26.9,19.5,26.9,19.5z"/>
	<polygon class="st9" points="27.1,19.4 27.1,19.4 27.1,19.4 	"/>
	<path class="st9" d="M27.1,19.4C27.1,19.4,27.1,19.4,27.1,19.4C27.1,19.4,27.1,19.4,27.1,19.4C27.1,19.4,27.1,19.4,27.1,19.4z"/>
	<path class="st9" d="M27.1,19.4L27.1,19.4C27.1,19.4,27.1,19.4,27.1,19.4C27.1,19.4,27.1,19.4,27.1,19.4z"/>
	<path class="st10" d="M24.2,21.5C24.1,21.5,24.1,21.5,24.2,21.5L24.2,21.5C24.1,21.5,24.1,21.5,24.2,21.5L24.2,21.5L24.2,21.5z"/>
	<path class="st10" d="M24.1,21.5C24.1,21.6,24.1,21.6,24.1,21.5C24.1,21.5,24.2,21.5,24.1,21.5L24.1,21.5
		C24.2,21.5,24.1,21.5,24.1,21.5C24.1,21.5,24.1,21.5,24.1,21.5z"/>
	<path class="st10" d="M24.1,21.5C24.1,21.5,24.2,21.5,24.1,21.5L24.1,21.5L24.1,21.5C24.1,21.5,24.1,21.5,24.1,21.5L24.1,21.5
		L24.1,21.5L24.1,21.5z"/>
	<polygon class="st10" points="24.1,21.5 24.1,21.5 24.1,21.5 	"/>
	<path class="st10" d="M24.1,21.5L24.1,21.5C24.1,21.5,24.1,21.5,24.1,21.5C24.1,21.5,24.1,21.6,24.1,21.5
		C24.1,21.6,24.1,21.6,24.1,21.5z"/>
	<path class="st10" d="M24.1,21.5C24.1,21.5,24.1,21.5,24.1,21.5L24.1,21.5C24.1,21.5,24.1,21.5,24.1,21.5
		C24.1,21.5,24.1,21.5,24.1,21.5z"/>
</g>
</svg>
